# xmcd
#
# Track frame offsets:
#	150
#	14543
#	26218
#	38953
#	59538
#	73283
#	89795
#	100468
#	115448
#	129205
#
# Disc length: 1908 seconds
#
# Revision: 2
# Processed by: cddbd v1.5.2PL0 Copyright (c) Steve Scherf et al.
# Submitted via: EasyCDDAExtractor 15.3.0.1
#
DISCID=9807720a
DTITLE=Rocio Durcal - Canta Los Super Hits De Juan Gabriel Vol. 1
DYEAR=1983
DGENRE=Latin
TTITLE0=Tarde
TTITLE1=Juro Que Nunca Volvere
TTITLE2=Me Nace Del Corazon
TTITLE3=Nuevamente Sola
TTITLE4=Lagrimas Y Lluvia
TTITLE5=Dejame
TTITLE6=Tu Abandono
TTITLE7=Se Me Olvido Otra Vez
TTITLE8=Jamas Me Cansare De Ti
TTITLE9=Te Voy A Olvidar
EXTD=
EXTT0=
EXTT1=
EXTT2=
EXTT3=
EXTT4=
EXTT5=
EXTT6=
EXTT7=
EXTT8=
EXTT9=
PLAYORDER=
